# xmcd
#
# Track frame offsets:
#	150
#	29685
#	50792
#	88995
#	115905
#	137650
#	172302
#	197817
#	216437
#	238280
#	259467
#	297055
#	341055
#
# Disc length: 4594 seconds
#
# Revision: 4
# Processed by: cddbd v1.5.1PL0 Copyright (c) Steve Scherf et al.
# Submitted via: EasyCDDAExtractor 7.1.2.1
#
DISCID=e111f00d
DTITLE=Various Artist - Berlin 1992 Tresor Compil. - Auferstanden aus Ruinen
DYEAR=1900
DGENRE=Techno
TTITLE0=3 Phase - Der Klang der Familie
TTITLE1=System 01 - Drugs Work
TTITLE2=Tanith - Return And Revenge of The Gatorade (Tanith Mix)
TTITLE3=Ingator II - Skyscratch (Mano Mano) Tresor Mix
TTITLE4=Futurhythm - Phuture 2
TTITLE5=Microglobe - High On Hope (The Long Hot Summer Mix)
TTITLE6=Maurizio - Ploy (Strategic Mix)
TTITLE7=Cosmic Baby - Cosmic Cubes
TTITLE8=Vein Melter - Hypnotyzed
TTITLE9=Voov - It's Anything You Want It To Be And It's A Gas (Smoke Mach. V2)
TTITLE10=3 Phase - Open Your Mind
TTITLE11=Mindgear - Don't Panic (The Whole Story Mix)
TTITLE12=3 Phase - Outerlude
EXTD=
EXTT0=
EXTT1=
EXTT2=
EXTT3=
EXTT4=
EXTT5=
EXTT6=
EXTT7=
EXTT8=
EXTT9=
EXTT10=
EXTT11=
EXTT12=
PLAYORDER=
